<?xml version="1.0" encoding="utf-8"?>
<svg viewBox="0 230.878 1042.886 276.871" xmlns="http://www.w3.org/2000/svg" xmlns:xlink="http://www.w3.org/1999/xlink">
  <defs>
    <linearGradient id="3e3b4f84-8398-4e97-bfa9-93b2936006f5-139" x1="369.42" y1="281.2" x2="369.42" y2="129.23" gradientUnits="userSpaceOnUse">
      <stop offset="0" stop-color="gray" stop-opacity="0.25"/>
      <stop offset="0.54" stop-color="gray" stop-opacity="0.12"/>
      <stop offset="1" stop-color="gray" stop-opacity="0.1"/>
    </linearGradient>
    <linearGradient id="eba4e103-e776-48b6-9f55-897b2c643a10-140" x1="325.25" y1="122.25" x2="325.25" y2="79.83" xlink:href="#3e3b4f84-8398-4e97-bfa9-93b2936006f5-139"/>
    <linearGradient id="73968a21-755d-4562-8ffb-fae58a7b600b-141" x1="260.16" y1="180.95" x2="260.16" y2="130.39" xlink:href="#3e3b4f84-8398-4e97-bfa9-93b2936006f5-139"/>
    <linearGradient id="14122a6c-7f6c-4dde-aa69-0bfcca24829a-142" x1="476.5" y1="180.95" x2="476.5" y2="129.81" xlink:href="#3e3b4f84-8398-4e97-bfa9-93b2936006f5-139"/>
    <linearGradient id="8f9daf16-6dc3-4ab7-ad04-022195c1fcf8-143" x1="369.54" y1="133.69" x2="369.54" y2="67.17" xlink:href="#3e3b4f84-8398-4e97-bfa9-93b2936006f5-139"/>
    <linearGradient id="43b0b26d-914f-491d-a041-92999dbbe527-144" x1="367.97" y1="279.46" x2="367.97" y2="118.77" xlink:href="#3e3b4f84-8398-4e97-bfa9-93b2936006f5-139"/>
    <linearGradient id="ca618a97-ecd5-4224-86a7-e65b179fc7aa-145" x1="65.41" y1="282.45" x2="65.41" y2="168.46" xlink:href="#3e3b4f84-8398-4e97-bfa9-93b2936006f5-139"/>
    <linearGradient id="d4a136ba-2c16-48ed-b5ab-c1493b7a7acb-146" x1="34.3" y1="165.9" x2="34.3" y2="134.79" xlink:href="#3e3b4f84-8398-4e97-bfa9-93b2936006f5-139"/>
    <linearGradient id="ef61be1e-18fe-4bcb-9275-2f988f2bf512-147" x1="65.62" y1="281.17" x2="65.62" y2="163.34" xlink:href="#3e3b4f84-8398-4e97-bfa9-93b2936006f5-139"/>
    <linearGradient id="1512db09-687e-46a3-b6f1-2462e94a71e8-148" x1="66.78" y1="174.29" x2="66.78" y2="125.51" xlink:href="#3e3b4f84-8398-4e97-bfa9-93b2936006f5-139"/>
    <linearGradient id="6e74d349-ece4-41ce-9852-57f84313790d-149" x1="735.26" y1="281.53" x2="735.26" y2="82.38" xlink:href="#3e3b4f84-8398-4e97-bfa9-93b2936006f5-139"/>
    <linearGradient id="7cd06b92-268d-499d-ae65-d452a7b79361-150" x1="698.92" y1="39.35" x2="698.92" y2="4.44" xlink:href="#3e3b4f84-8398-4e97-bfa9-93b2936006f5-139"/>
    <linearGradient id="77f52eac-aca1-4508-ae87-71aaae06d074-151" x1="645.37" y1="115.85" x2="645.37" y2="74.25" xlink:href="#3e3b4f84-8398-4e97-bfa9-93b2936006f5-139"/>
    <linearGradient id="9b105c8a-2fbe-4f76-8808-d06d81c11f8b-152" x1="823.36" y1="116.81" x2="823.36" y2="74.73" xlink:href="#3e3b4f84-8398-4e97-bfa9-93b2936006f5-139"/>
    <linearGradient id="fcf7c80f-694e-4f22-8819-23d4fd4e8e1d-153" x1="735.36" y1="54.73" x2="735.36" y2="0" xlink:href="#3e3b4f84-8398-4e97-bfa9-93b2936006f5-139"/>
    <linearGradient id="2b4a4a05-21c6-45b7-b09c-f2c76655e0f6-154" x1="734.3" y1="280.1" x2="734.3" y2="46.52" xlink:href="#3e3b4f84-8398-4e97-bfa9-93b2936006f5-139"/>
  </defs>
  <g style="" transform="matrix(0.864704, 0, 0, 0.899405, 186.140475, 3.95539)">
    <g opacity="0.7" transform="matrix(1, 0, 0, 1, -199.233917, 277.69101)">
      <polygon points="516.75 281.2 222.09 281.2 224.13 143.18 308.4 129.23 427.54 129.23 514.71 139.11 516.75 281.2" fill="url(#3e3b4f84-8398-4e97-bfa9-93b2936006f5-139)"/>
    </g>
    <polygon points="313.436 557.151 26.936 557.151 28.976 422.611 109.436 408.661 229.756 408.661 311.396 418.541 313.436 557.151" fill="#eee"/>
    <g opacity="0.7" transform="matrix(1, 0, 0, 1, -199.233917, 277.69101)">
      <rect x="314.5" y="79.83" width="21.5" height="42.43" fill="url(#eba4e103-e776-48b6-9f55-897b2c643a10-140)"/>
    </g>
    <g opacity="0.7" transform="matrix(1, 0, 0, 1, -199.233917, 277.69101)">
      <polygon points="314.49 176.25 314.49 130.39 221.1 130.39 205.24 176.25 205.24 180.95 315.08 180.95 315.08 176.25 314.49 176.25" fill="url(#73968a21-755d-4562-8ffb-fae58a7b600b-141)"/>
    </g>
    <polygon points="115.266 453.991 7.166 453.991 22.856 408.661 115.266 408.661 115.266 453.991" fill="#dcbcb3"/>
    <polygon points="115.266 453.991 7.166 453.991 22.856 408.661 115.266 408.661 115.266 453.991" opacity="0.1"/>
    <rect x="7.166" y="453.991" width="108.68" height="4.65" fill="#dcbcb3"/>
    <g opacity="0.7" transform="matrix(1, 0, 0, 1, -199.233917, 277.69101)">
      <polygon points="515.66 129.81 422.02 129.81 422.02 176.19 421.43 176.19 421.43 180.95 531.57 180.95 531.57 176.19 515.66 129.81" fill="url(#14122a6c-7f6c-4dde-aa69-0bfcca24829a-142)"/>
    </g>
    <polygon points="222.776 453.991 330.876 453.991 315.186 408.661 222.776 408.661 222.776 453.991" fill="#dcbcb3"/>
    <polygon points="222.776 453.991 330.876 453.991 315.186 408.661 222.776 408.661 222.776 453.991" opacity="0.1"/>
    <rect x="-330.876" y="-458.641" width="108.68" height="4.65" transform="matrix(-1, 0, 0, -1, 0, 0)" fill="#dcbcb3"/>
    <rect x="36.226" y="476.951" width="58.7" height="36.61" fill="#dcbcb3" opacity="0.5"/>
    <rect x="32.736" y="510.951" width="65.67" height="6.39" opacity="0.1"/>
    <rect x="32.736" y="510.371" width="65.67" height="6.39" fill="#535461"/>
    <g opacity="0.1" transform="matrix(1, 0, 0, 1, -199.233917, 277.69101)">
      <rect x="235.46" y="199.26" width="58.7" height="14.53"/>
    </g>
    <rect x="243.706" y="476.951" width="58.7" height="36.61" fill="#dcbcb3" opacity="0.5"/>
    <rect x="240.216" y="510.951" width="65.67" height="6.39" opacity="0.1"/>
    <rect x="240.216" y="510.371" width="65.67" height="6.39" fill="#535461"/>
    <g opacity="0.1" transform="matrix(1, 0, 0, 1, -199.233917, 277.69101)">
      <rect x="442.94" y="199.26" width="58.7" height="14.53"/>
    </g>
    <g opacity="0.7" transform="matrix(1, 0, 0, 1, -199.233917, 277.69101)">
      <polygon points="440.13 133.69 368.44 78.25 299.06 133.65 293.62 126.84 368.36 67.17 445.46 126.8 440.13 133.69" fill="url(#8f9daf16-6dc3-4ab7-ad04-022195c1fcf8-143)"/>
    </g>
    <rect x="28.376" y="458.641" width="77.3" height="0.87" opacity="0.1"/>
    <rect x="233.826" y="458.641" width="78.17" height="0.87" opacity="0.1"/>
    <rect x="115.846" y="358.101" width="20.34" height="41.84" fill="#535461"/>
    <g opacity="0.7" transform="matrix(1, 0, 0, 1, -199.233917, 277.69101)">
      <polygon points="433.06 279.46 302.88 279.46 302.88 120.22 368.53 118.77 433.06 120.22 433.06 279.46" fill="url(#43b0b26d-914f-491d-a041-92999dbbe527-144)"/>
    </g>
    <polygon points="232.366 557.151 105.676 557.151 105.676 397.911 169.026 352.871 232.366 397.911 232.366 557.151" fill="#fff"/>
    <rect x="153.036" y="503.681" width="31.96" height="53.47" fill="#535461"/>
    <rect x="136.186" y="455.741" width="65.67" height="6.39" opacity="0.1"/>
    <rect x="139.676" y="421.741" width="58.7" height="36.61" fill="#dcbcb3" opacity="0.5"/>
    <rect x="136.186" y="455.161" width="65.67" height="6.39" fill="#535461"/>
    <g opacity="0.1" transform="matrix(1, 0, 0, 1, -199.233917, 277.69101)">
      <rect x="338.91" y="144.05" width="58.7" height="14.53"/>
    </g>
    <polygon points="240.896 411.961 169.206 356.521 99.826 411.921 94.386 405.111 169.126 345.441 246.226 405.071 240.896 411.961" fill="#dcbcb3"/>
    <circle cx="180.356" cy="530.421" r="2.32" fill="#e0e0e0"/>
    <g opacity="0.7" transform="matrix(1, 0, 0, 1, -199.233917, 277.69101)">
      <rect y="168.46" width="130.82" height="113.99" fill="url(#ca618a97-ecd5-4224-86a7-e65b179fc7aa-145)"/>
    </g>
    <rect x="-196.994" y="447.421" width="127.2" height="111.43" fill="#eee"/>
    <g opacity="0.7" transform="matrix(1, 0, 0, 1, -199.233917, 277.69101)">
      <rect x="26.42" y="134.79" width="15.77" height="31.11" fill="url(#d4a136ba-2c16-48ed-b5ab-c1493b7a7acb-146)"/>
    </g>
    <rect x="-172.384" y="412.911" width="14.91" height="30.68" fill="#535461"/>
    <g opacity="0.7" transform="matrix(1, 0, 0, 1, -199.233917, 277.69101)">
      <polygon points="113.35 281.17 17.9 281.17 17.9 164.41 66.04 163.34 113.35 164.41 113.35 281.17" fill="url(#ef61be1e-18fe-4bcb-9275-2f988f2bf512-147)"/>
    </g>
    <polygon points="-86.944 558.861 -179.844 558.861 -179.844 442.101 -133.394 409.071 -86.944 442.101 -86.944 558.861" fill="#fff"/>
    <rect x="-145.114" y="519.651" width="23.44" height="39.2" fill="#535461"/>
    <rect x="-154.914" y="459.571" width="43.04" height="26.85" fill="#dcbcb3" opacity="0.5"/>
    <rect x="-157.474" y="484.071" width="48.15" height="4.69" fill="#535461"/>
    <g opacity="0.1" transform="matrix(1, 0, 0, 1, -199.233917, 277.69101)">
      <rect x="44.32" y="181.88" width="43.04" height="10.65"/>
    </g>
    <g opacity="0.7" transform="matrix(1, 0, 0, 1, -199.233917, 277.69101)">
      <polygon points="118.53 174.29 65.97 133.64 15.1 174.26 11.11 169.26 65.91 125.51 122.44 169.23 118.53 174.29" fill="url(#1512db09-687e-46a3-b6f1-2462e94a71e8-148)"/>
    </g>
    <polygon points="-80.704 452.401 -133.264 411.751 -184.134 452.371 -188.124 447.381 -133.324 403.621 -76.794 447.351 -80.704 452.401" fill="#dcbcb3"/>
    <circle cx="-125.084" cy="539.261" r="1.7" fill="#e0e0e0"/>
    <g opacity="0.7" transform="matrix(1, 0, 0, 1, -199.233917, 277.69101)">
      <polygon points="856.47 281.53 614.05 281.53 615.72 100.66 685.05 82.38 783.08 82.38 854.8 95.33 856.47 281.53" fill="url(#6e74d349-ece4-41ce-9852-57f84313790d-149)"/>
    </g>
    <polygon points="653.886 556.941 418.166 556.941 419.846 380.631 486.046 362.361 585.036 362.361 652.206 375.301 653.886 556.941" fill="#eee"/>
    <g opacity="0.7" transform="matrix(1, 0, 0, 1, -199.233917, 277.69101)">
      <rect x="690.07" y="4.44" width="17.69" height="34.91" fill="url(#7cd06b92-268d-499d-ae65-d452a7b79361-150)"/>
    </g>
    <g opacity="0.7" transform="matrix(1, 0, 0, 1, -199.233917, 277.69101)">
      <polygon points="690.07 111.98 690.07 74.25 613.23 74.25 600.18 111.98 600.18 115.85 690.55 115.85 690.55 111.98 690.07 111.98" fill="url(#77f52eac-aca1-4508-ae87-71aaae06d074-151)"/>
    </g>
    <polygon points="490.836 389.721 401.906 389.721 414.816 352.421 490.836 352.421 490.836 389.721" fill="#dcbcb3"/>
    <polygon points="490.836 389.721 401.906 389.721 414.816 352.421 490.836 352.421 490.836 389.721" opacity="0.1"/>
    <rect x="401.906" y="389.721" width="89.42" height="3.83" fill="#dcbcb3"/>
    <g opacity="0.7" transform="matrix(1, 0, 0, 1, -199.233917, 277.69101)">
      <polygon points="855.58 74.73 778.54 74.73 778.54 112.89 778.05 112.89 778.05 116.81 868.66 116.81 868.66 112.89 855.58 74.73" fill="url(#9b105c8a-2fbe-4f76-8808-d06d81c11f8b-152)"/>
    </g>
    <polygon points="579.296 390.671 668.236 390.671 655.326 353.381 579.296 353.381 579.296 390.671" fill="#dcbcb3"/>
    <polygon points="579.296 390.671 668.236 390.671 655.326 353.381 579.296 353.381 579.296 390.671" opacity="0.1"/>
    <rect x="-668.236" y="-394.501" width="89.42" height="3.83" transform="matrix(-1, 0, 0, -1, 0, 0)" fill="#dcbcb3"/>
    <rect x="425.806" y="491.801" width="48.29" height="30.12" fill="#dcbcb3" opacity="0.5"/>
    <rect x="422.946" y="519.771" width="54.03" height="5.26" opacity="0.1"/>
    <rect x="422.946" y="519.301" width="54.03" height="5.26" fill="#535461"/>
    <g opacity="0.1" transform="matrix(1, 0, 0, 1, -199.233917, 277.69101)">
      <rect x="625.04" y="214.11" width="48.29" height="11.95"/>
    </g>
    <rect x="596.516" y="491.801" width="48.29" height="30.12" fill="#dcbcb3" opacity="0.5"/>
    <rect x="593.646" y="519.771" width="54.03" height="5.26" opacity="0.1"/>
    <rect x="593.646" y="519.301" width="54.03" height="5.26" fill="#535461"/>
    <g opacity="0.1" transform="matrix(1, 0, 0, 1, -199.233917, 277.69101)">
      <rect x="795.75" y="214.11" width="48.29" height="11.95"/>
    </g>
    <rect x="596.516" y="421.511" width="48.29" height="30.12" fill="#dcbcb3" opacity="0.5"/>
    <rect x="593.646" y="449.491" width="54.03" height="5.26" opacity="0.1"/>
    <rect x="593.646" y="449.011" width="54.03" height="5.26" fill="#535461"/>
    <g opacity="0.1" transform="matrix(1, 0, 0, 1, -199.233917, 277.69101)">
      <rect x="795.75" y="143.82" width="48.29" height="11.95"/>
    </g>
    <rect x="427.246" y="421.511" width="48.29" height="30.12" fill="#dcbcb3" opacity="0.5"/>
    <rect x="424.376" y="449.491" width="54.03" height="5.26" opacity="0.1"/>
    <rect x="424.376" y="449.011" width="54.03" height="5.26" fill="#535461"/>
    <g opacity="0.1" transform="matrix(1, 0, 0, 1, -199.233917, 277.69101)">
      <rect x="626.48" y="143.82" width="48.29" height="11.95"/>
    </g>
    <g opacity="0.7" transform="matrix(1, 0, 0, 1, -199.233917, 277.69101)">
      <polygon points="793.43 54.73 734.46 9.12 677.37 54.7 672.89 49.1 734.39 0 797.82 49.06 793.43 54.73" fill="url(#fcf7c80f-694e-4f22-8819-23d4fd4e8e1d-153)"/>
    </g>
    <rect x="419.356" y="393.541" width="63.59" height="0.72" opacity="0.1"/>
    <rect x="588.386" y="394.501" width="64.31" height="0.72" opacity="0.1"/>
    <rect x="491.316" y="282.611" width="16.74" height="34.43" fill="#535461"/>
    <g opacity="0.7" transform="matrix(1, 0, 0, 1, -199.233917, 277.69101)">
      <polygon points="787.86 280.1 680.75 280.1 680.75 48.63 734.77 46.52 787.86 48.63 787.86 280.1" fill="url(#2b4a4a05-21c6-45b7-b09c-f2c76655e0f6-154)"/>
    </g>
    <polygon points="587.186 557.791 482.946 557.791 482.946 325.401 535.066 286.201 588.146 326.841 587.186 557.791" fill="#fff"/>
    <rect x="521.916" y="513.801" width="26.3" height="43.99" fill="#535461"/>
    <rect x="508.056" y="474.351" width="54.03" height="5.26" opacity="0.1"/>
    <rect x="510.926" y="446.381" width="48.29" height="30.12" fill="#dcbcb3" opacity="0.5"/>
    <rect x="508.056" y="473.871" width="54.03" height="5.26" fill="#535461"/>
    <g opacity="0.1" transform="matrix(1, 0, 0, 1, -199.233917, 277.69101)">
      <rect x="710.16" y="168.69" width="48.29" height="11.95"/>
    </g>
    <rect x="510.926" y="387.331" width="48.29" height="30.12" fill="#dcbcb3" opacity="0.5"/>
    <rect x="508.056" y="414.821" width="54.03" height="5.26" fill="#535461"/>
    <g opacity="0.1" transform="matrix(1, 0, 0, 1, -199.233917, 277.69101)">
      <rect x="710.16" y="109.64" width="48.29" height="11.95"/>
    </g>
    <rect x="510.926" y="328.271" width="48.29" height="30.12" fill="#dcbcb3" opacity="0.5"/>
    <rect x="508.056" y="355.771" width="54.03" height="5.26" fill="#535461"/>
    <g opacity="0.1" transform="matrix(1, 0, 0, 1, -199.233917, 277.69101)">
      <rect x="710.16" y="50.58" width="48.29" height="11.95"/>
    </g>
    <polygon points="594.196 334.101 535.226 288.481 478.136 334.061 473.656 328.461 535.156 279.361 598.586 328.421 594.196 334.101" fill="#dcbcb3"/>
    <circle cx="544.396" cy="535.791" r="1.91" fill="#e0e0e0"/>
  </g>
  <g style="" transform="matrix(0.299315, 0, 0, 0.319781, 543.58619, 306.515782)">
    <path d="M 1177.387 432.948 C 1178.36 426.331 1173.115 420.443 1166.43 420.647 L 1097.626 351.08 L 1084.034 370.081 L 1155.94 432.489 C 1156.743 440.764 1166.204 445.067 1172.969 440.234 C 1175.378 438.513 1176.975 435.879 1177.387 432.948 Z" fill="#ffb8b8"/>
    <path d="M 1144.794 392.778 L 1127.233 410.32 C 1125.483 412.058 1122.662 412.069 1120.898 410.345 L 1072.911 363.167 C 1063.248 353.667 1067.494 337.269 1080.553 333.651 C 1086.738 331.938 1093.365 333.726 1097.848 338.318 L 1144.834 386.451 C 1146.548 388.218 1146.53 391.032 1144.794 392.778 Z" fill="#dcbcb3"/>
    <circle cx="1083.205" cy="282.112" r="24.561" fill="#ffb8b8"/>
    <polygon points="1000.214 576.437 1006.433 587.002 1050.145 568.043 1040.966 552.449 1000.214 576.437" fill="#ffb8b8"/>
    <path d="M 1002.077 571.711 L 1014.324 592.518 L 1014.325 592.519 C 1018.635 599.842 1016.193 609.273 1008.869 613.584 L 1008.439 613.837 L 988.386 579.77 L 1002.077 571.711 Z" fill="#2f2e41"/>
    <polygon points="1072.271 614.499 1084.531 614.499 1090.363 567.211 1072.269 567.212 1072.271 614.499" fill="#ffb8b8"/>
    <path d="M 1069.144 610.496 L 1093.287 610.495 L 1093.288 610.495 C 1101.786 610.495 1108.675 617.384 1108.675 625.882 L 1108.675 626.382 L 1069.144 626.383 L 1069.144 610.496 Z" fill="#2f2e41"/>
    <path d="M 1022.982 585.849 C 1021.551 585.85 1020.205 585.169 1019.358 584.016 L 1007.534 567.957 C 1006.013 565.891 1006.525 562.972 1008.659 561.547 L 1061.273 526.406 L 1029.526 442.931 L 1097.415 448.533 L 1099.702 520.267 C 1100.139 533.579 1093.2 546.047 1081.657 552.691 L 1025.23 585.244 C 1024.547 585.64 1023.772 585.849 1022.982 585.849 Z" fill="#2f2e41"/>
    <path d="M 1072.641 604.899 C 1070.221 604.894 1068.238 602.977 1068.152 600.559 L 1065.664 530.677 L 1096.472 529.054 L 1094.019 599.438 C 1093.944 601.748 1092.127 603.624 1089.82 603.771 L 1072.947 604.889 C 1072.844 604.896 1072.742 604.899 1072.641 604.899 Z" fill="#2f2e41"/>
    <path d="M 1105.272 462.41 C 1097.434 462.41 1070.056 453.594 1060.551 450.451 C 1059.129 451.589 1051.318 457.43 1042.2 456.363 C 1036.574 455.702 1031.621 452.518 1027.479 446.897 C 1018.332 434.483 1029.63 381.245 1040.718 338.771 C 1045.338 320.927 1063.245 309.935 1081.247 313.891 C 1094.052 316.718 1104.155 326.546 1107.334 339.269 C 1109.422 347.767 1107.626 357.763 1106.315 365.063 C 1105.698 368.494 1105.211 371.205 1105.378 372.537 C 1106.021 377.686 1109.597 458.429 1107.298 461.877 C 1107.053 462.244 1106.345 462.41 1105.272 462.41 Z" fill="#dcbcb3"/>
    <path d="M 1076.597 462.553 C 1081.962 458.56 1082.413 450.688 1077.539 446.108 L 1078.024 348.264 L 1054.98 352.102 L 1061.749 447.072 C 1056.468 453.494 1060.121 463.225 1068.323 464.587 C 1071.243 465.071 1074.234 464.337 1076.597 462.553 Z" fill="#ffb8b8"/>
    <path d="M 1081.927 411.1 L 1057.106 411.1 C 1054.639 411.093 1052.635 409.107 1052.606 406.641 L 1051.996 339.349 C 1051.873 325.799 1066.465 317.196 1078.261 323.865 C 1083.849 327.023 1087.274 332.973 1087.2 339.392 L 1086.427 406.652 C 1086.391 409.113 1084.389 411.092 1081.927 411.1 Z" fill="#dcbcb3"/>
    <path d="M 1076.951 306.57 C 1065.705 306.591 1055.097 297.702 1053.148 286.627 C 1052.45 282.276 1052.765 277.823 1054.067 273.613 C 1060.072 253.264 1082.673 242.914 1102.002 251.661 C 1105.011 253.022 1107.974 254.977 1109.351 257.978 C 1110.729 260.979 1109.867 265.173 1106.853 266.524 C 1104.884 267.406 1102.413 266.973 1100.666 268.239 C 1098.157 270.059 1098.803 273.931 1099.923 276.821 C 1101.044 279.71 1102.311 283.207 1100.433 285.673 C 1098.683 287.97 1095.184 287.899 1092.428 287.034 C 1089.673 286.17 1086.953 284.722 1084.08 285.016 C 1079.889 285.446 1076.878 289.614 1076.321 293.789 C 1075.763 297.964 1077.075 302.138 1078.371 306.146 L 1076.951 306.57 Z" fill="#2f2e41"/>
    <path d="M 1384.289 331.637 C 1384.289 264.472 1438.738 105.092 1505.903 105.092 C 1573.068 105.092 1627.517 264.472 1627.517 331.637 C 1627.517 425.255 1526.172 483.767 1445.096 436.958 C 1407.469 415.234 1384.289 375.086 1384.289 331.637 Z" style="fill: rgb(154, 211, 149);"/>
    <path d="M 1505.903 627.51 C 1505.351 627.51 1504.903 627.062 1504.903 626.51 L 1504.903 207.225 C 1504.903 206.456 1505.736 205.974 1506.403 206.359 C 1506.712 206.538 1506.903 206.868 1506.903 207.225 L 1506.903 626.51 C 1506.903 627.062 1506.455 627.51 1505.903 627.51 Z" fill="#3f3d56"/>
    <path d="M 1505.903 288.171 C 1505.638 288.171 1505.383 288.066 1505.196 287.878 L 1457.061 239.744 C 1456.52 239.196 1456.775 238.268 1457.52 238.074 C 1457.862 237.985 1458.225 238.082 1458.476 238.33 L 1506.61 286.464 C 1507.154 287.008 1506.905 287.938 1506.162 288.137 C 1506.077 288.16 1505.99 288.171 1505.903 288.171 Z" fill="#3f3d56"/>
    <path d="M 1505.903 371.501 C 1505.133 371.501 1504.652 370.668 1505.037 370.001 C 1505.081 369.926 1505.134 369.856 1505.196 369.794 L 1585.806 289.184 C 1586.354 288.643 1587.282 288.899 1587.476 289.644 C 1587.565 289.984 1587.467 290.347 1587.22 290.598 L 1506.61 371.208 C 1506.423 371.396 1506.168 371.502 1505.903 371.501 Z" fill="#3f3d56"/>
    <path d="M 1169.348 432.379 C 1185.303 428.772 1203.379 441.252 1203.939 458.007 C 1204.096 462.719 1202.715 467.668 1199.089 470.874 C 1196.095 473.521 1191.64 474.855 1187.77 473.562 C 1180.323 471.072 1179.925 460.695 1183.92 455.152 C 1189.33 447.647 1200.046 446.366 1208.55 447.259 C 1218.946 448.35 1228.826 452.908 1237.118 459.156 C 1253.717 471.664 1264.286 490.834 1272.841 509.356 C 1281.599 528.355 1287.967 548.368 1291.8 568.935 C 1292.282 571.518 1292.724 574.108 1293.126 576.705 C 1293.362 577.497 1294.191 577.952 1294.986 577.726 C 1295.767 577.478 1296.217 576.66 1296.007 575.867 C 1292.505 553.423 1286.037 531.544 1276.772 510.805 C 1267.815 490.732 1256.522 469.911 1238.558 456.516 C 1229.602 449.838 1219.027 445.191 1207.835 444.198 C 1198.413 443.361 1187.257 445.354 1181.397 453.549 C 1176.775 460.013 1177.245 470.757 1184.397 475.259 C 1188.329 477.734 1193.325 477.445 1197.408 475.521 C 1201.793 473.356 1205.005 469.373 1206.194 464.629 C 1208.733 455.324 1204.877 445.26 1198.266 438.608 C 1192.061 432.349 1183.628 428.803 1174.814 428.746 C 1172.692 428.77 1170.578 429.022 1168.509 429.498 C 1166.626 429.924 1167.468 432.804 1169.348 432.379 Z" fill="#ccc"/>
    <path d="M 1246.292 616.641 L 1236.377 599.713 L 1248.603 592.552 L 1258.517 609.48 L 1258.517 609.481 C 1261.274 614.186 1257.902 620.111 1252.449 620.145 C 1249.918 620.161 1247.571 618.825 1246.292 616.641 Z" fill="#dcbcb3"/>
    <circle cx="1213.509" cy="572.736" r="8.719" fill="#dcbcb3"/>
    <path d="M 1284.653 616.641 L 1274.738 599.713 L 1286.964 592.552 L 1296.879 609.48 C 1299.63 614.188 1296.253 620.11 1290.8 620.139 C 1288.274 620.152 1285.932 618.82 1284.653 616.641 Z" fill="#dcbcb3"/>
    <path d="M 1215.166 590.301 C 1215.177 580.074 1223.466 571.785 1233.693 571.774 L 1292.345 571.774 C 1296.668 571.779 1300.171 575.282 1300.176 579.605 L 1300.176 586.279 C 1300.162 598.727 1290.074 608.815 1277.625 608.829 L 1233.693 608.829 C 1223.466 608.818 1215.177 600.529 1215.166 590.301 Z" fill="#3f3d56"/>
    <path d="M 1228.691 618.824 L 1228.691 599.207 L 1242.859 599.207 L 1242.859 618.824 C 1242.859 624.278 1236.956 627.686 1232.233 624.959 C 1230.041 623.694 1228.691 621.355 1228.691 618.824 Z" fill="#3f3d56"/>
    <path d="M 1269.804 618.824 L 1269.804 599.207 L 1283.972 599.207 L 1283.972 618.824 C 1283.978 624.278 1278.079 627.693 1273.353 624.972 C 1271.154 623.706 1269.801 621.361 1269.804 618.824 Z" fill="#3f3d56"/>
    <path d="M 1327.449 541.208 C 1331.662 535.984 1339.951 537.279 1342.369 543.541 C 1343.487 546.435 1342.983 549.705 1341.045 552.128 L 1326.713 569.972 L 1313.117 559.053 L 1327.449 541.208 Z" fill="#dcbcb3"/>
    <path d="M 1292.926 576.361 L 1304.407 562.065 C 1310.22 554.844 1320.781 553.691 1328.015 559.488 L 1331.602 562.369 C 1340.212 569.3 1341.587 581.891 1334.675 590.517 L 1325.216 602.295 C 1323.039 604.998 1319.085 605.43 1316.377 603.259 L 1293.891 585.2 C 1291.187 583.023 1290.756 579.069 1292.926 576.361 Z" fill="#3f3d56"/>
    <path d="M 1329.155 539.084 C 1332.044 535.486 1337.745 536.366 1339.416 540.667 C 1340.192 542.663 1339.843 544.921 1338.502 546.591 L 1322.464 566.56 L 1313.117 559.053 L 1329.155 539.084 Z" fill="#3f3d56"/>
    <path d="M 1306.179 572.463 L 1330.822 592.254 C 1336.044 596.471 1334.743 604.759 1328.481 607.173 C 1325.589 608.288 1322.324 607.784 1319.903 605.85 L 1295.26 586.059 L 1306.179 572.463 Z" fill="#3f3d56"/>
    <ellipse cx="675.028" cy="687.577" rx="3.678" ry="2.044" transform="matrix(0.62619, -0.779671, 0.779671, 0.62619, 372.842861, 699.62436)" fill="#dcbcb3"/>
    <path d="M 1576.455 629.284 L -1783.762 629.284 C -1787.507 629.284 -1789.847 627.635 -1787.974 626.314 C -1787.109 625.702 -1785.504 625.324 -1783.762 625.324 L 1576.455 625.324 C 1580.195 625.324 1582.54 626.973 1580.668 628.294 C 1579.797 628.908 1578.192 629.284 1576.455 629.284 Z" style="fill: rgb(220, 188, 179);"/>
  </g>
</svg>